<svg width="400" height="400" viewBox="0 0 400 400" xmlns="http://www.w3.org/2000/svg">
  <defs>
    <radialGradient id="spiralGradient" cx="50%" cy="50%" r="50%">
      <stop offset="0%" style="stop-color:#00ff88;stop-opacity:1" />
      <stop offset="10%" style="stop-color:#00d4ff;stop-opacity:1" />
      <stop offset="20%" style="stop-color:#0099ff;stop-opacity:1" />
      <stop offset="30%" style="stop-color:#6600ff;stop-opacity:1" />
      <stop offset="40%" style="stop-color:#cc00ff;stop-opacity:1" />
      <stop offset="50%" style="stop-color:#ff0066;stop-opacity:1" />
      <stop offset="60%" style="stop-color:#ff6600;stop-opacity:1" />
      <stop offset="70%" style="stop-color:#ffcc00;stop-opacity:1" />
      <stop offset="80%" style="stop-color:#00ff88;stop-opacity:1" />
      <stop offset="90%" style="stop-color:#00d4ff;stop-opacity:1" />
      <stop offset="100%" style="stop-color:#0099ff;stop-opacity:1" />
    </radialGradient>
  </defs>
  
  <!-- Ultra-dense cosmic spiral pattern -->
  <g opacity="1">
    <!-- Generate thousands of tiny dots for cosmic effect -->
    <g id="cosmicSpiralDots">
      <!-- Center core - ultra dense -->
      <circle cx="200" cy="200" r="2" fill="#00ff88" opacity="1"/>
      <circle cx="200.5" cy="199.5" r="1.5" fill="#00d4ff" opacity="1"/>
      <circle cx="199.5" cy="200.5" r="1.5" fill="#00d4ff" opacity="1"/>
      <circle cx="201" cy="199" r="1.2" fill="#0099ff" opacity="1"/>
      <circle cx="199" cy="201" r="1.2" fill="#0099ff" opacity="1"/>
      <circle cx="200.2" cy="199.8" r="1" fill="#6600ff" opacity="1"/>
      <circle cx="199.8" cy="200.2" r="1" fill="#6600ff" opacity="1"/>
      <circle cx="200.8" cy="199.2" r="0.8" fill="#cc00ff" opacity="1"/>
      <circle cx="199.2" cy="200.8" r="0.8" fill="#cc00ff" opacity="1"/>
      <circle cx="201.2" cy="198.8" r="0.8" fill="#ff0066" opacity="1"/>
      <circle cx="198.8" cy="201.2" r="0.8" fill="#ff0066" opacity="1"/>
      <circle cx="201.5" cy="198.5" r="0.6" fill="#ff6600" opacity="1"/>
      <circle cx="198.5" cy="201.5" r="0.6" fill="#ff6600" opacity="1"/>
      <circle cx="201.8" cy="198.2" r="0.6" fill="#ffcc00" opacity="1"/>
      <circle cx="198.2" cy="201.8" r="0.6" fill="#ffcc00" opacity="1"/>
      
      <!-- Inner spiral ring 1 - ultra dense -->
      <circle cx="203" cy="197" r="1.2" fill="#00ff88" opacity="1"/>
      <circle cx="206" cy="194" r="1.2" fill="#00d4ff" opacity="1"/>
      <circle cx="209" cy="191" r="1.2" fill="#0099ff" opacity="1"/>
      <circle cx="212" cy="188" r="1.2" fill="#6600ff" opacity="1"/>
      <circle cx="215" cy="185" r="1.2" fill="#cc00ff" opacity="1"/>
      <circle cx="218" cy="182" r="1.2" fill="#ff0066" opacity="1"/>
      <circle cx="221" cy="179" r="1.2" fill="#ff6600" opacity="1"/>
      <circle cx="224" cy="176" r="1.2" fill="#ffcc00" opacity="1"/>
      
      <!-- Inner spiral ring 2 - ultra dense -->
      <circle cx="227" cy="173" r="1" fill="#00ff88" opacity="1"/>
      <circle cx="230" cy="170" r="1" fill="#00d4ff" opacity="1"/>
      <circle cx="233" cy="167" r="1" fill="#0099ff" opacity="1"/>
      <circle cx="236" cy="164" r="1" fill="#6600ff" opacity="1"/>
      <circle cx="239" cy="161" r="1" fill="#cc00ff" opacity="1"/>
      <circle cx="242" cy="158" r="1" fill="#ff0066" opacity="1"/>
      <circle cx="245" cy="155" r="1" fill="#ff6600" opacity="1"/>
      <circle cx="248" cy="152" r="1" fill="#ffcc00" opacity="1"/>
      
      <!-- Middle spiral ring 1 - ultra dense -->
      <circle cx="251" cy="149" r="0.8" fill="#00ff88" opacity="1"/>
      <circle cx="254" cy="146" r="0.8" fill="#00d4ff" opacity="1"/>
      <circle cx="257" cy="143" r="0.8" fill="#0099ff" opacity="1"/>
      <circle cx="260" cy="140" r="0.8" fill="#6600ff" opacity="1"/>
      <circle cx="263" cy="137" r="0.8" fill="#cc00ff" opacity="1"/>
      <circle cx="266" cy="134" r="0.8" fill="#ff0066" opacity="1"/>
      <circle cx="269" cy="131" r="0.8" fill="#ff6600" opacity="1"/>
      <circle cx="272" cy="128" r="0.8" fill="#ffcc00" opacity="1"/>
      
      <!-- Middle spiral ring 2 - ultra dense -->
      <circle cx="275" cy="125" r="0.6" fill="#00ff88" opacity="1"/>
      <circle cx="278" cy="122" r="0.6" fill="#00d4ff" opacity="1"/>
      <circle cx="281" cy="119" r="0.6" fill="#0099ff" opacity="1"/>
      <circle cx="284" cy="116" r="0.6" fill="#6600ff" opacity="1"/>
      <circle cx="287" cy="113" r="0.6" fill="#cc00ff" opacity="1"/>
      <circle cx="290" cy="110" r="0.6" fill="#ff0066" opacity="1"/>
      <circle cx="293" cy="107" r="0.6" fill="#ff6600" opacity="1"/>
      <circle cx="296" cy="104" r="0.6" fill="#ffcc00" opacity="1"/>
      
      <!-- Outer spiral ring - ultra dense -->
      <circle cx="299" cy="101" r="0.5" fill="#00ff88" opacity="1"/>
      <circle cx="302" cy="98" r="0.5" fill="#00d4ff" opacity="1"/>
      <circle cx="305" cy="95" r="0.5" fill="#0099ff" opacity="1"/>
      <circle cx="308" cy="92" r="0.5" fill="#6600ff" opacity="1"/>
      <circle cx="311" cy="89" r="0.5" fill="#cc00ff" opacity="1"/>
      <circle cx="314" cy="86" r="0.5" fill="#ff0066" opacity="1"/>
      <circle cx="317" cy="83" r="0.5" fill="#ff6600" opacity="1"/>
      <circle cx="320" cy="80" r="0.5" fill="#ffcc00" opacity="1"/>
      
      <!-- Additional spiral arms for density -->
      <circle cx="197" cy="203" r="1" fill="#00ff88" opacity="1"/>
      <circle cx="194" cy="206" r="1" fill="#00d4ff" opacity="1"/>
      <circle cx="191" cy="209" r="1" fill="#0099ff" opacity="1"/>
      <circle cx="188" cy="212" r="1" fill="#6600ff" opacity="1"/>
      <circle cx="185" cy="215" r="1" fill="#cc00ff" opacity="1"/>
      <circle cx="182" cy="218" r="1" fill="#ff0066" opacity="1"/>
      <circle cx="179" cy="221" r="1" fill="#ff6600" opacity="1"/>
      <circle cx="176" cy="224" r="1" fill="#ffcc00" opacity="1"/>
      
      <!-- Diagonal spirals for more density -->
      <circle cx="173" cy="227" r="0.8" fill="#00ff88" opacity="1"/>
      <circle cx="170" cy="230" r="0.8" fill="#00d4ff" opacity="1"/>
      <circle cx="167" cy="233" r="0.8" fill="#0099ff" opacity="1"/>
      <circle cx="164" cy="236" r="0.8" fill="#6600ff" opacity="1"/>
      <circle cx="161" cy="239" r="0.8" fill="#cc00ff" opacity="1"/>
      <circle cx="158" cy="242" r="0.8" fill="#ff0066" opacity="1"/>
      <circle cx="155" cy="245" r="0.8" fill="#ff6600" opacity="1"/>
      <circle cx="152" cy="248" r="0.8" fill="#ffcc00" opacity="1"/>
      
      <!-- More scattered dots for density -->
      <circle cx="149" cy="251" r="0.6" fill="#00ff88" opacity="1"/>
      <circle cx="146" cy="254" r="0.6" fill="#00d4ff" opacity="1"/>
      <circle cx="143" cy="257" r="0.6" fill="#0099ff" opacity="1"/>
      <circle cx="140" cy="260" r="0.6" fill="#6600ff" opacity="1"/>
      <circle cx="137" cy="263" r="0.6" fill="#cc00ff" opacity="1"/>
      <circle cx="134" cy="266" r="0.6" fill="#ff0066" opacity="1"/>
      <circle cx="131" cy="269" r="0.6" fill="#ff6600" opacity="1"/>
      <circle cx="128" cy="272" r="0.6" fill="#ffcc00" opacity="1"/>
      
      <!-- Additional density layers -->
      <circle cx="125" cy="275" r="0.5" fill="#00ff88" opacity="1"/>
      <circle cx="122" cy="278" r="0.5" fill="#00d4ff" opacity="1"/>
      <circle cx="119" cy="281" r="0.5" fill="#0099ff" opacity="1"/>
      <circle cx="116" cy="284" r="0.5" fill="#6600ff" opacity="1"/>
      <circle cx="113" cy="287" r="0.5" fill="#cc00ff" opacity="1"/>
      <circle cx="110" cy="290" r="0.5" fill="#ff0066" opacity="1"/>
      <circle cx="107" cy="293" r="0.5" fill="#ff6600" opacity="1"/>
      <circle cx="104" cy="296" r="0.5" fill="#ffcc00" opacity="1"/>
      
      <!-- Extra scattered dots for glow effect -->
      <circle cx="101" cy="299" r="0.4" fill="#00ff88" opacity="1"/>
      <circle cx="98" cy="302" r="0.4" fill="#00d4ff" opacity="1"/>
      <circle cx="95" cy="305" r="0.4" fill="#0099ff" opacity="1"/>
      <circle cx="92" cy="308" r="0.4" fill="#6600ff" opacity="1"/>
      <circle cx="89" cy="311" r="0.4" fill="#cc00ff" opacity="1"/>
      <circle cx="86" cy="314" r="0.4" fill="#ff0066" opacity="1"/>
      <circle cx="83" cy="317" r="0.4" fill="#ff6600" opacity="1"/>
      <circle cx="80" cy="320" r="0.4" fill="#ffcc00" opacity="1"/>
      
      <!-- Additional spiral arms for complete coverage -->
      <circle cx="203" cy="197" r="0.8" fill="#00ff88" opacity="1"/>
      <circle cx="206" cy="194" r="0.8" fill="#00d4ff" opacity="1"/>
      <circle cx="209" cy="191" r="0.8" fill="#0099ff" opacity="1"/>
      <circle cx="212" cy="188" r="0.8" fill="#6600ff" opacity="1"/>
      <circle cx="215" cy="185" r="0.8" fill="#cc00ff" opacity="1"/>
      <circle cx="218" cy="182" r="0.8" fill="#ff0066" opacity="1"/>
      <circle cx="221" cy="179" r="0.8" fill="#ff6600" opacity="1"/>
      <circle cx="224" cy="176" r="0.8" fill="#ffcc00" opacity="1"/>
      
      <!-- Inner glow dots - ultra dense -->
      <circle cx="198" cy="202" r="0.6" fill="#00ff88" opacity="1"/>
      <circle cx="202" cy="198" r="0.6" fill="#00d4ff" opacity="1"/>
      <circle cx="197" cy="203" r="0.6" fill="#0099ff" opacity="1"/>
      <circle cx="203" cy="197" r="0.6" fill="#6600ff" opacity="1"/>
      <circle cx="196" cy="204" r="0.6" fill="#cc00ff" opacity="1"/>
      <circle cx="204" cy="196" r="0.6" fill="#ff0066" opacity="1"/>
      <circle cx="195" cy="205" r="0.6" fill="#ff6600" opacity="1"/>
      <circle cx="205" cy="195" r="0.6" fill="#ffcc00" opacity="1"/>
      
      <!-- Additional dense clusters for ultra-density -->
      <circle cx="200.2" cy="199.8" r="0.4" fill="#00ff88" opacity="1"/>
      <circle cx="199.8" cy="200.2" r="0.4" fill="#00d4ff" opacity="1"/>
      <circle cx="200.8" cy="199.2" r="0.4" fill="#0099ff" opacity="1"/>
      <circle cx="199.2" cy="200.8" r="0.4" fill="#6600ff" opacity="1"/>
      <circle cx="201.2" cy="198.8" r="0.4" fill="#cc00ff" opacity="1"/>
      <circle cx="198.8" cy="201.2" r="0.4" fill="#ff0066" opacity="1"/>
      <circle cx="201.8" cy="198.2" r="0.4" fill="#ff6600" opacity="1"/>
      <circle cx="198.2" cy="201.8" r="0.4" fill="#ffcc00" opacity="1"/>
      
      <!-- More scattered dots for complete coverage -->
      <circle cx="207" cy="193" r="0.5" fill="#00ff88" opacity="1"/>
      <circle cx="213" cy="187" r="0.5" fill="#00d4ff" opacity="1"/>
      <circle cx="217" cy="183" r="0.5" fill="#0099ff" opacity="1"/>
      <circle cx="223" cy="177" r="0.5" fill="#6600ff" opacity="1"/>
      <circle cx="227" cy="173" r="0.5" fill="#cc00ff" opacity="1"/>
      <circle cx="233" cy="167" r="0.5" fill="#ff0066" opacity="1"/>
      <circle cx="237" cy="163" r="0.5" fill="#ff6600" opacity="1"/>
      <circle cx="243" cy="157" r="0.5" fill="#ffcc00" opacity="1"/>
      
      <!-- Additional spiral variations -->
      <circle cx="193" cy="207" r="0.7" fill="#00ff88" opacity="1"/>
      <circle cx="187" cy="213" r="0.7" fill="#00d4ff" opacity="1"/>
      <circle cx="183" cy="217" r="0.7" fill="#0099ff" opacity="1"/>
      <circle cx="177" cy="223" r="0.7" fill="#6600ff" opacity="1"/>
      <circle cx="173" cy="227" r="0.7" fill="#cc00ff" opacity="1"/>
      <circle cx="167" cy="233" r="0.7" fill="#ff0066" opacity="1"/>
      <circle cx="163" cy="237" r="0.7" fill="#ff6600" opacity="1"/>
      <circle cx="157" cy="243" r="0.7" fill="#ffcc00" opacity="1"/>
      
      <!-- Ultra-dense additional dots for cosmic effect -->
      <circle cx="200.1" cy="199.9" r="0.3" fill="#00ff88" opacity="1"/>
      <circle cx="199.9" cy="200.1" r="0.3" fill="#00d4ff" opacity="1"/>
      <circle cx="200.3" cy="199.7" r="0.3" fill="#0099ff" opacity="1"/>
      <circle cx="199.7" cy="200.3" r="0.3" fill="#6600ff" opacity="1"/>
      <circle cx="200.4" cy="199.6" r="0.3" fill="#cc00ff" opacity="1"/>
      <circle cx="199.6" cy="200.4" r="0.3" fill="#ff0066" opacity="1"/>
      <circle cx="200.6" cy="199.4" r="0.3" fill="#ff6600" opacity="1"/>
      <circle cx="199.4" cy="200.6" r="0.3" fill="#ffcc00" opacity="1"/>
      
      <!-- Even more dense center cluster -->
      <circle cx="200.05" cy="199.95" r="0.2" fill="#00ff88" opacity="1"/>
      <circle cx="199.95" cy="200.05" r="0.2" fill="#00d4ff" opacity="1"/>
      <circle cx="200.15" cy="199.85" r="0.2" fill="#0099ff" opacity="1"/>
      <circle cx="199.85" cy="200.15" r="0.2" fill="#6600ff" opacity="1"/>
      <circle cx="200.25" cy="199.75" r="0.2" fill="#cc00ff" opacity="1"/>
      <circle cx="199.75" cy="200.25" r="0.2" fill="#ff0066" opacity="1"/>
      <circle cx="200.35" cy="199.65" r="0.2" fill="#ff6600" opacity="1"/>
      <circle cx="199.65" cy="200.35" r="0.2" fill="#ffcc00" opacity="1"/>
      
      <!-- Additional spiral arms for maximum density -->
      <circle cx="323" cy="77" r="0.4" fill="#00ff88" opacity="1"/>
      <circle cx="326" cy="74" r="0.4" fill="#00d4ff" opacity="1"/>
      <circle cx="329" cy="71" r="0.4" fill="#0099ff" opacity="1"/>
      <circle cx="332" cy="68" r="0.4" fill="#6600ff" opacity="1"/>
      <circle cx="335" cy="65" r="0.4" fill="#cc00ff" opacity="1"/>
      <circle cx="338" cy="62" r="0.4" fill="#ff0066" opacity="1"/>
      <circle cx="341" cy="59" r="0.4" fill="#ff6600" opacity="1"/>
      <circle cx="344" cy="56" r="0.4" fill="#ffcc00" opacity="1"/>
      
      <!-- Final outer ring for complete coverage -->
      <circle cx="347" cy="53" r="0.3" fill="#00ff88" opacity="1"/>
      <circle cx="350" cy="50" r="0.3" fill="#00d4ff" opacity="1"/>
      <circle cx="353" cy="47" r="0.3" fill="#0099ff" opacity="1"/>
      <circle cx="356" cy="44" r="0.3" fill="#6600ff" opacity="1"/>
      <circle cx="359" cy="41" r="0.3" fill="#cc00ff" opacity="1"/>
      <circle cx="362" cy="38" r="0.3" fill="#ff0066" opacity="1"/>
      <circle cx="365" cy="35" r="0.3" fill="#ff6600" opacity="1"/>
      <circle cx="368" cy="32" r="0.3" fill="#ffcc00" opacity="1"/>
    </g>
  </g>
</svg> 